<svg width="344" height="15" viewBox="0 0 344 15" fill="none" xmlns="http://www.w3.org/2000/svg">
<line x1="0.00228881" y1="6.82911" x2="140.002" y2="7.25635" stroke="white" stroke-width="1.5"/>
<line x1="203.998" y1="7.25" x2="343.998" y2="6.82886" stroke="white" stroke-width="1.5"/>
<path d="M172.5 0L174.184 5.18237H179.633L175.225 8.38525L176.908 13.5676L172.5 10.3647L168.092 13.5676L169.775 8.38525L165.367 5.18237H170.816L172.5 0Z" fill="white"/>
<path d="M189 3L190.123 6.45492H193.755L190.816 8.59017L191.939 12.0451L189 9.90983L186.061 12.0451L187.184 8.59017L184.245 6.45492H187.877L189 3Z" fill="white"/>
<path d="M157 3L158.123 6.45492H161.755L158.816 8.59017L159.939 12.0451L157 9.90983L154.061 12.0451L155.184 8.59017L152.245 6.45492H155.877L157 3Z" fill="white"/>
</svg>
